STARTFONT 2.1
FONT -Monotype-Courier-Regular-R-Normal--14-100-100-100-M-69-iso8859-5
SIZE 10 100 100
FONTBOUNDINGBOX 10 15 -1 -3

STARTPROPERTIES 24
FOUNDRY "Monotype"
FAMILY_NAME "Courier"
WEIGHT_NAME "Regular"
SLANT "R"
SETWIDTH_NAME "Normal"
ADD_STYLE_NAME ""
PIXEL_SIZE 14
POINT_SIZE 100
RESOLUTION_X 100
RESOLUTION_Y 100
SPACING "M"
AVERAGE_WIDTH 69
CHARSET_REGISTRY "iso8859"
CHARSET_ENCODING "5"
FACE_NAME "Courier ISO Latin Cyrillic"
_DEC_DEVICE_FONTNAMES "PS=courier-latcyrillic"
COPYRIGHT "Copyright (c) 1994 Monotype Typography Ltd."
CAP_HEIGHT 9
X_HEIGHT 6
WEIGHT 10
QUAD_WIDTH 9
DEFAULT_CHAR 160
FONT_DESCENT 4
FONT_ASCENT 12
ENDPROPERTIES

CHARS 191

STARTCHAR space
ENCODING 32
SWIDTH 600 0
DWIDTH 9 0
BBX 0 0 0 0
BITMAP
ENDCHAR

STARTCHAR exclam
ENCODING 33
SWIDTH 600 0
DWIDTH 9 0
BBX 1 10 4 0
BITMAP
80
80
80
80
80
80
80
00
80
80
ENDCHAR

STARTCHAR quotedbl
ENCODING 34
SWIDTH 600 0
DWIDTH 9 0
BBX 5 4 2 5
BITMAP
D8
D8
D8
88
ENDCHAR

STARTCHAR numbersign
ENCODING 35
SWIDTH 600 0
DWIDTH 9 0
BBX 7 12 1 -2
BITMAP
14
14
14
14
7E
28
28
FC
28
28
28
28
ENDCHAR

STARTCHAR dollar
ENCODING 36
SWIDTH 600 0
DWIDTH 9 0
BBX 6 11 2 -1
BITMAP
20
74
8C
84
60
18
84
C4
B8
20
20
ENDCHAR

STARTCHAR percent
ENCODING 37
SWIDTH 600 0
DWIDTH 9 0
BBX 6 9 2 0
BITMAP
60
90
90
6C
30
D8
24
24
18
ENDCHAR

STARTCHAR ampersand
ENCODING 38
SWIDTH 600 0
DWIDTH 9 0
BBX 6 8 2 0
BITMAP
30
48
40
20
64
98
88
7C
ENDCHAR

STARTCHAR quoteright
ENCODING 39
SWIDTH 600 0
DWIDTH 9 0
BBX 3 3 3 7
BITMAP
60
40
80
ENDCHAR

STARTCHAR parenleft
ENCODING 40
SWIDTH 600 0
DWIDTH 9 0
BBX 3 13 3 -3
BITMAP
20
40
40
80
80
80
80
80
80
80
40
40
20
ENDCHAR

STARTCHAR parenright
ENCODING 41
SWIDTH 600 0
DWIDTH 9 0
BBX 3 13 3 -3
BITMAP
80
40
40
20
20
20
20
20
20
20
40
40
80
ENDCHAR

STARTCHAR asterisk
ENCODING 42
SWIDTH 600 0
DWIDTH 9 0
BBX 5 5 2 5
BITMAP
20
20
F8
50
88
ENDCHAR

STARTCHAR plus
ENCODING 43
SWIDTH 600 0
DWIDTH 9 0
BBX 7 7 1 1
BITMAP
10
10
10
FE
10
10
10
ENDCHAR

STARTCHAR comma
ENCODING 44
SWIDTH 600 0
DWIDTH 9 0
BBX 3 4 3 -2
BITMAP
60
40
80
80
ENDCHAR

STARTCHAR minus
ENCODING 45
SWIDTH 600 0
DWIDTH 9 0
BBX 7 1 1 4
BITMAP
FE
ENDCHAR

STARTCHAR period
ENCODING 46
SWIDTH 600 0
DWIDTH 9 0
BBX 1 2 4 0
BITMAP
80
80
ENDCHAR

STARTCHAR slash
ENCODING 47
SWIDTH 600 0
DWIDTH 9 0
BBX 5 12 2 -2
BITMAP
08
08
08
10
10
20
20
20
40
40
80
80
ENDCHAR

STARTCHAR zero
ENCODING 48
SWIDTH 600 0
DWIDTH 9 0
BBX 6 10 2 0
BITMAP
78
84
84
84
84
84
84
84
84
78
ENDCHAR

STARTCHAR one
ENCODING 49
SWIDTH 600 0
DWIDTH 9 0
BBX 5 10 2 0
BITMAP
60
A0
20
20
20
20
20
20
20
F8
ENDCHAR

STARTCHAR two
ENCODING 50
SWIDTH 600 0
DWIDTH 9 0
BBX 6 10 2 0
BITMAP
78
84
04
04
08
10
20
40
80
FC
ENDCHAR

STARTCHAR three
ENCODING 51
SWIDTH 600 0
DWIDTH 9 0
BBX 6 10 2 0
BITMAP
38
44
04
04
38
04
04
04
84
78
ENDCHAR

STARTCHAR four
ENCODING 52
SWIDTH 600 0
DWIDTH 9 0
BBX 6 10 2 0
BITMAP
18
18
28
28
48
48
88
FC
08
1C
ENDCHAR

STARTCHAR five
ENCODING 53
SWIDTH 600 0
DWIDTH 9 0
BBX 6 10 2 0
BITMAP
FC
80
80
B8
C4
04
04
04
84
78
ENDCHAR

STARTCHAR six
ENCODING 54
SWIDTH 600 0
DWIDTH 9 0
BBX 6 10 2 0
BITMAP
1C
60
40
B8
C4
84
84
84
84
78
ENDCHAR

STARTCHAR seven
ENCODING 55
SWIDTH 600 0
DWIDTH 9 0
BBX 6 10 2 0
BITMAP
FC
84
04
08
08
08
08
10
10
10
ENDCHAR

STARTCHAR eight
ENCODING 56
SWIDTH 600 0
DWIDTH 9 0
BBX 6 10 2 0
BITMAP
78
84
84
84
78
84
84
84
84
78
ENDCHAR

STARTCHAR nine
ENCODING 57
SWIDTH 600 0
DWIDTH 9 0
BBX 6 10 2 0
BITMAP
78
84
84
84
84
8C
74
08
18
E0
ENDCHAR

STARTCHAR colon
ENCODING 58
SWIDTH 600 0
DWIDTH 9 0
BBX 1 7 4 0
BITMAP
80
80
00
00
00
80
80
ENDCHAR

STARTCHAR semicolon
ENCODING 59
SWIDTH 600 0
DWIDTH 9 0
BBX 3 9 3 -2
BITMAP
40
40
00
00
00
60
40
80
80
ENDCHAR

STARTCHAR less
ENCODING 60
SWIDTH 600 0
DWIDTH 9 0
BBX 7 7 1 1
BITMAP
06
18
60
80
60
18
06
ENDCHAR

STARTCHAR equal
ENCODING 61
SWIDTH 600 0
DWIDTH 9 0
BBX 7 3 1 3
BITMAP
FE
00
FE
ENDCHAR

STARTCHAR greater
ENCODING 62
SWIDTH 600 0
DWIDTH 9 0
BBX 7 7 1 1
BITMAP
C0
30
0C
02
0C
30
C0
ENDCHAR

STARTCHAR question
ENCODING 63
SWIDTH 600 0
DWIDTH 9 0
BBX 6 10 2 0
BITMAP
78
84
84
04
08
10
10
00
10
10
ENDCHAR

STARTCHAR at
ENCODING 64
SWIDTH 600 0
DWIDTH 9 0
BBX 7 11 1 -1
BITMAP
38
44
84
9C
A4
A4
A4
9E
80
40
3C
ENDCHAR

STARTCHAR A
ENCODING 65
SWIDTH 600 0
DWIDTH 9 0
BBX 9 9 0 0
BITMAP
3800
1400
1400
2200
2200
3E00
4100
4100
E380
ENDCHAR

STARTCHAR B
ENCODING 66
SWIDTH 600 0
DWIDTH 9 0
BBX 7 9 1 0
BITMAP
FC
42
42
42
7C
42
42
42
FC
ENDCHAR

STARTCHAR C
ENCODING 67
SWIDTH 600 0
DWIDTH 9 0
BBX 7 9 1 0
BITMAP
3A
46
82
80
80
80
80
42
3C
ENDCHAR

STARTCHAR D
ENCODING 68
SWIDTH 600 0
DWIDTH 9 0
BBX 8 9 1 0
BITMAP
FC
42
41
41
41
41
41
42
FC
ENDCHAR

STARTCHAR E
ENCODING 69
SWIDTH 600 0
DWIDTH 9 0
BBX 7 9 1 0
BITMAP
FE
42
42
48
78
48
42
42
FE
ENDCHAR

STARTCHAR F
ENCODING 70
SWIDTH 600 0
DWIDTH 9 0
BBX 7 9 1 0
BITMAP
FE
42
42
48
78
48
40
40
F8
ENDCHAR

STARTCHAR G
ENCODING 71
SWIDTH 600 0
DWIDTH 9 0
BBX 8 9 1 0
BITMAP
3A
46
82
80
80
8F
82
42
3C
ENDCHAR

STARTCHAR H
ENCODING 72
SWIDTH 600 0
DWIDTH 9 0
BBX 8 9 1 0
BITMAP
E7
42
42
42
7E
42
42
42
E7
ENDCHAR

STARTCHAR I
ENCODING 73
SWIDTH 600 0
DWIDTH 9 0
BBX 5 9 2 0
BITMAP
F8
20
20
20
20
20
20
20
F8
ENDCHAR

STARTCHAR J
ENCODING 74
SWIDTH 600 0
DWIDTH 9 0
BBX 8 9 1 0
BITMAP
3F
04
04
04
04
84
84
88
70
ENDCHAR

STARTCHAR K
ENCODING 75
SWIDTH 600 0
DWIDTH 9 0
BBX 8 9 1 0
BITMAP
E7
44
48
50
68
44
44
42
E3
ENDCHAR

STARTCHAR L
ENCODING 76
SWIDTH 600 0
DWIDTH 9 0
BBX 8 9 1 0
BITMAP
F8
20
20
20
20
21
21
21
FF
ENDCHAR

STARTCHAR M
ENCODING 77
SWIDTH 600 0
DWIDTH 9 0
BBX 9 9 0 0
BITMAP
C180
6300
6300
5500
5500
4900
4100
4100
E380
ENDCHAR

STARTCHAR N
ENCODING 78
SWIDTH 600 0
DWIDTH 9 0
BBX 8 9 1 0
BITMAP
C7
62
52
52
52
4A
4A
46
E2
ENDCHAR

STARTCHAR O
ENCODING 79
SWIDTH 600 0
DWIDTH 9 0
BBX 8 9 1 0
BITMAP
3C
42
81
81
81
81
81
42
3C
ENDCHAR

STARTCHAR P
ENCODING 80
SWIDTH 600 0
DWIDTH 9 0
BBX 7 9 1 0
BITMAP
FC
42
42
42
7C
40
40
40
F0
ENDCHAR

STARTCHAR Q
ENCODING 81
SWIDTH 600 0
DWIDTH 9 0
BBX 8 11 1 -2
BITMAP
3C
42
81
81
81
81
81
42
3C
19
2E
ENDCHAR

STARTCHAR R
ENCODING 82
SWIDTH 600 0
DWIDTH 9 0
BBX 8 9 1 0
BITMAP
FC
42
42
42
7C
44
44
42
E3
ENDCHAR

STARTCHAR S
ENCODING 83
SWIDTH 600 0
DWIDTH 9 0
BBX 6 9 2 0
BITMAP
74
8C
84
40
30
08
84
C4
B8
ENDCHAR

STARTCHAR T
ENCODING 84
SWIDTH 600 0
DWIDTH 9 0
BBX 7 9 1 0
BITMAP
FE
92
92
10
10
10
10
10
7C
ENDCHAR

STARTCHAR U
ENCODING 85
SWIDTH 600 0
DWIDTH 9 0
BBX 8 9 1 0
BITMAP
E7
42
42
42
42
42
42
42
3C
ENDCHAR

STARTCHAR V
ENCODING 86
SWIDTH 600 0
DWIDTH 9 0
BBX 9 9 0 0
BITMAP
E380
4100
4100
2200
2200
1400
1400
0800
0800
ENDCHAR

STARTCHAR W
ENCODING 87
SWIDTH 600 0
DWIDTH 9 0
BBX 9 9 0 0
BITMAP
E380
4100
4900
4900
5500
5500
2200
2200
2200
ENDCHAR

STARTCHAR X
ENCODING 88
SWIDTH 600 0
DWIDTH 9 0
BBX 8 9 1 0
BITMAP
E7
42
24
28
18
14
24
42
E7
ENDCHAR

STARTCHAR Y
ENCODING 89
SWIDTH 600 0
DWIDTH 9 0
BBX 7 9 1 0
BITMAP
EE
44
28
28
10
10
10
10
7C
ENDCHAR

STARTCHAR Z
ENCODING 90
SWIDTH 600 0
DWIDTH 9 0
BBX 6 9 2 0
BITMAP
FC
84
88
10
10
20
44
84
FC
ENDCHAR

STARTCHAR bracketleft
ENCODING 91
SWIDTH 600 0
DWIDTH 9 0
BBX 3 12 3 -2
BITMAP
E0
80
80
80
80
80
80
80
80
80
80
E0
ENDCHAR

STARTCHAR backslash
ENCODING 92
SWIDTH 600 0
DWIDTH 9 0
BBX 5 12 2 -2
BITMAP
80
80
40
40
40
20
20
10
10
08
08
08
ENDCHAR

STARTCHAR bracketright
ENCODING 93
SWIDTH 600 0
DWIDTH 9 0
BBX 3 12 3 -2
BITMAP
E0
20
20
20
20
20
20
20
20
20
20
E0
ENDCHAR

STARTCHAR asciicircum
ENCODING 94
SWIDTH 600 0
DWIDTH 9 0
BBX 5 4 2 6
BITMAP
20
50
88
88
ENDCHAR

STARTCHAR underscore
ENCODING 95
SWIDTH 600 0
DWIDTH 9 0
BBX 9 1 0 -2
BITMAP
FF80
ENDCHAR

STARTCHAR quoteleft
ENCODING 96
SWIDTH 600 0
DWIDTH 9 0
BBX 3 3 4 7
BITMAP
C0
40
20
ENDCHAR

STARTCHAR a
ENCODING 97
SWIDTH 600 0
DWIDTH 9 0
BBX 8 7 1 0
BITMAP
7C
02
02
7E
82
86
7B
ENDCHAR

STARTCHAR b
ENCODING 98
SWIDTH 600 0
DWIDTH 9 0
BBX 8 10 1 0
BITMAP
C0
40
40
5C
62
41
41
41
62
DC
ENDCHAR

STARTCHAR c
ENCODING 99
SWIDTH 600 0
DWIDTH 9 0
BBX 8 7 1 0
BITMAP
3D
43
81
80
80
41
3E
ENDCHAR

STARTCHAR d
ENCODING 100
SWIDTH 600 0
DWIDTH 9 0
BBX 8 10 1 0
BITMAP
06
02
02
3A
46
82
82
82
46
3B
ENDCHAR

STARTCHAR e
ENCODING 101
SWIDTH 600 0
DWIDTH 9 0
BBX 8 7 1 0
BITMAP
3C
42
81
FF
80
41
3E
ENDCHAR

STARTCHAR f
ENCODING 102
SWIDTH 600 0
DWIDTH 9 0
BBX 7 10 2 0
BITMAP
1E
20
20
FC
20
20
20
20
20
FC
ENDCHAR

STARTCHAR g
ENCODING 103
SWIDTH 600 0
DWIDTH 9 0
BBX 8 10 1 -3
BITMAP
3B
46
82
82
82
46
3A
02
06
38
ENDCHAR

STARTCHAR h
ENCODING 104
SWIDTH 600 0
DWIDTH 9 0
BBX 8 10 1 0
BITMAP
C0
40
40
5C
62
42
42
42
42
E7
ENDCHAR

STARTCHAR i
ENCODING 105
SWIDTH 600 0
DWIDTH 9 0
BBX 7 10 1 0
BITMAP
10
10
00
70
10
10
10
10
10
FE
ENDCHAR

STARTCHAR j
ENCODING 106
SWIDTH 600 0
DWIDTH 9 0
BBX 5 13 2 -3
BITMAP
10
10
00
F8
08
08
08
08
08
08
08
18
E0
ENDCHAR

STARTCHAR k
ENCODING 107
SWIDTH 600 0
DWIDTH 9 0
BBX 7 10 1 0
BITMAP
C0
40
40
4E
48
70
50
48
44
CE
ENDCHAR

STARTCHAR l
ENCODING 108
SWIDTH 600 0
DWIDTH 9 0
BBX 7 10 1 0
BITMAP
70
10
10
10
10
10
10
10
10
FE
ENDCHAR

STARTCHAR m
ENCODING 109
SWIDTH 600 0
DWIDTH 9 0
BBX 9 7 0 0
BITMAP
F600
4900
4900
4900
4900
4900
ED80
ENDCHAR

STARTCHAR n
ENCODING 110
SWIDTH 600 0
DWIDTH 9 0
BBX 8 7 1 0
BITMAP
DC
62
42
42
42
42
E7
ENDCHAR

STARTCHAR o
ENCODING 111
SWIDTH 600 0
DWIDTH 9 0
BBX 8 7 1 0
BITMAP
3C
42
81
81
81
42
3C
ENDCHAR

STARTCHAR p
ENCODING 112
SWIDTH 600 0
DWIDTH 9 0
BBX 8 10 1 -3
BITMAP
DC
62
41
41
41
62
5C
40
40
F0
ENDCHAR

STARTCHAR q
ENCODING 113
SWIDTH 600 0
DWIDTH 9 0
BBX 8 10 1 -3
BITMAP
3B
46
82
82
82
46
3A
02
02
0F
ENDCHAR

STARTCHAR r
ENCODING 114
SWIDTH 600 0
DWIDTH 9 0
BBX 8 7 1 0
BITMAP
66
29
30
20
20
20
FC
ENDCHAR

STARTCHAR s
ENCODING 115
SWIDTH 600 0
DWIDTH 9 0
BBX 6 7 2 0
BITMAP
74
8C
80
78
04
C4
B8
ENDCHAR

STARTCHAR t
ENCODING 116
SWIDTH 600 0
DWIDTH 9 0
BBX 7 10 1 0
BITMAP
40
40
40
FC
40
40
40
40
42
3C
ENDCHAR

STARTCHAR u
ENCODING 117
SWIDTH 600 0
DWIDTH 9 0
BBX 8 7 1 0
BITMAP
C6
42
42
42
42
46
3B
ENDCHAR

STARTCHAR v
ENCODING 118
SWIDTH 600 0
DWIDTH 9 0
BBX 8 7 1 0
BITMAP
E7
42
42
24
24
18
18
ENDCHAR

STARTCHAR w
ENCODING 119
SWIDTH 600 0
DWIDTH 9 0
BBX 9 7 0 0
BITMAP
E380
4100
4900
4900
5500
2200
2200
ENDCHAR

STARTCHAR x
ENCODING 120
SWIDTH 600 0
DWIDTH 9 0
BBX 8 7 1 0
BITMAP
E7
42
24
18
24
42
E7
ENDCHAR

STARTCHAR y
ENCODING 121
SWIDTH 600 0
DWIDTH 9 0
BBX 8 10 1 -3
BITMAP
E7
42
22
24
14
18
08
10
10
F8
ENDCHAR

STARTCHAR z
ENCODING 122
SWIDTH 600 0
DWIDTH 9 0
BBX 6 7 2 0
BITMAP
FC
88
10
20
20
44
FC
ENDCHAR

STARTCHAR braceleft
ENCODING 123
SWIDTH 600 0
DWIDTH 9 0
BBX 3 13 3 -3
BITMAP
20
40
40
40
40
40
80
40
40
40
40
40
20
ENDCHAR

STARTCHAR bar
ENCODING 124
SWIDTH 600 0
DWIDTH 9 0
BBX 1 13 4 -3
BITMAP
80
80
80
80
80
80
80
80
80
80
80
80
80
ENDCHAR

STARTCHAR braceright
ENCODING 125
SWIDTH 600 0
DWIDTH 9 0
BBX 3 13 3 -3
BITMAP
80
40
40
40
40
40
20
40
40
40
40
40
80
ENDCHAR

STARTCHAR asciitilde
ENCODING 126
SWIDTH 600 0
DWIDTH 9 0
BBX 7 3 1 3
BITMAP
62
92
8C
ENDCHAR

STARTCHAR space
ENCODING 160
SWIDTH 600 0
DWIDTH 10 0
BBX 0 0 0 0
BITMAP
ENDCHAR

STARTCHAR afii10023
ENCODING 161
SWIDTH 600 0
DWIDTH 9 0
BBX 7 11 1 0
BITMAP
24
00
FE
42
42
48
78
48
42
42
FE
ENDCHAR

STARTCHAR afii10051
ENCODING 162
SWIDTH 600 0
DWIDTH 9 0
BBX 9 9 0 0
BITMAP
7C00
9200
9200
1000
1700
1880
1080
1080
3B00
ENDCHAR

STARTCHAR afii10052
ENCODING 163
SWIDTH 600 0
DWIDTH 9 0
BBX 8 12 1 0
BITMAP
08
10
00
FF
21
21
21
20
20
20
20
F8
ENDCHAR

STARTCHAR afii10053
ENCODING 164
SWIDTH 600 0
DWIDTH 9 0
BBX 7 9 1 0
BITMAP
3A
46
82
80
F8
80
80
42
3C
ENDCHAR

STARTCHAR afii10054
ENCODING 165
SWIDTH 600 0
DWIDTH 9 0
BBX 6 9 2 0
BITMAP
74
8C
84
40
30
08
84
C4
B8
ENDCHAR

STARTCHAR afii10055
ENCODING 166
SWIDTH 600 0
DWIDTH 9 0
BBX 5 9 2 0
BITMAP
F8
20
20
20
20
20
20
20
F8
ENDCHAR

STARTCHAR afii10056
ENCODING 167
SWIDTH 600 0
DWIDTH 9 0
BBX 5 11 2 0
BITMAP
48
00
F8
20
20
20
20
20
20
20
F8
ENDCHAR

STARTCHAR afii10057
ENCODING 168
SWIDTH 600 0
DWIDTH 9 0
BBX 8 9 1 0
BITMAP
3F
04
04
04
04
84
84
88
70
ENDCHAR

STARTCHAR afii10058
ENCODING 169
SWIDTH 600 0
DWIDTH 9 0
BBX 9 9 0 0
BITMAP
3E00
1400
1400
1400
1700
1480
1480
9480
EF00
ENDCHAR

STARTCHAR afii10059
ENCODING 170
SWIDTH 600 0
DWIDTH 9 0
BBX 9 9 0 0
BITMAP
DC00
4800
4800
4800
7F00
4880
4880
4880
DF00
ENDCHAR

STARTCHAR afii10060
ENCODING 171
SWIDTH 600 0
DWIDTH 9 0
BBX 9 9 0 0
BITMAP
7C00
9200
9200
1000
1600
1900
1100
1100
3B80
ENDCHAR

STARTCHAR afii10061
ENCODING 172
SWIDTH 600 0
DWIDTH 9 0
BBX 7 12 1 0
BITMAP
08
10
00
E6
4A
48
50
70
48
48
44
E6
ENDCHAR

STARTCHAR hyphen
ENCODING 173
SWIDTH 600 0
DWIDTH 9 0
BBX 7 1 1 4
BITMAP
FE
ENDCHAR

STARTCHAR afii10062
ENCODING 174
SWIDTH 600 0
DWIDTH 9 0
BBX 9 12 0 0
BITMAP
2200
1C00
0000
E380
4100
2200
1200
1400
0800
0800
5000
6000
ENDCHAR

STARTCHAR afii10145
ENCODING 175
SWIDTH 600 0
DWIDTH 9 0
BBX 8 11 1 -2
BITMAP
E7
42
42
42
42
42
42
42
FF
08
08
ENDCHAR

STARTCHAR afii10017
ENCODING 176
SWIDTH 600 0
DWIDTH 9 0
BBX 9 9 0 0
BITMAP
3800
1400
1400
2200
2200
3E00
4100
4100
E380
ENDCHAR

STARTCHAR afii10018
ENCODING 177
SWIDTH 600 0
DWIDTH 9 0
BBX 7 9 1 0
BITMAP
FE
42
42
40
7C
42
42
42
FC
ENDCHAR

STARTCHAR afii10019
ENCODING 178
SWIDTH 600 0
DWIDTH 9 0
BBX 7 9 1 0
BITMAP
FC
42
42
42
7C
42
42
42
FC
ENDCHAR

STARTCHAR afii10020
ENCODING 179
SWIDTH 600 0
DWIDTH 9 0
BBX 8 9 1 0
BITMAP
FF
21
21
21
20
20
20
20
F8
ENDCHAR

STARTCHAR afii10021
ENCODING 180
SWIDTH 600 0
DWIDTH 9 0
BBX 8 11 1 -2
BITMAP
7F
22
22
22
22
22
22
42
FF
81
81
ENDCHAR

STARTCHAR afii10022
ENCODING 181
SWIDTH 600 0
DWIDTH 9 0
BBX 7 9 1 0
BITMAP
FE
42
42
48
78
48
42
42
FE
ENDCHAR

STARTCHAR afii10024
ENCODING 182
SWIDTH 600 0
DWIDTH 9 0
BBX 9 9 0 0
BITMAP
DD80
AA80
2A00
2A00
1C00
2A00
4900
4900
DD80
ENDCHAR

STARTCHAR afii10025
ENCODING 183
SWIDTH 600 0
DWIDTH 9 0
BBX 7 9 1 0
BITMAP
BC
C2
82
04
3C
02
02
84
78
ENDCHAR

STARTCHAR afii10026
ENCODING 184
SWIDTH 600 0
DWIDTH 9 0
BBX 8 9 1 0
BITMAP
E3
46
4A
4A
4A
52
52
62
C7
ENDCHAR

STARTCHAR afii10027
ENCODING 185
SWIDTH 600 0
DWIDTH 9 0
BBX 8 12 1 0
BITMAP
22
1C
00
E3
46
4A
4A
4A
52
52
62
C7
ENDCHAR

STARTCHAR afii10028
ENCODING 186
SWIDTH 600 0
DWIDTH 9 0
BBX 7 9 1 0
BITMAP
E6
4A
48
50
70
48
48
44
E6
ENDCHAR

STARTCHAR afii10029
ENCODING 187
SWIDTH 600 0
DWIDTH 9 0
BBX 9 9 0 0
BITMAP
3F80
1100
1100
1100
1100
1100
1100
9100
E380
ENDCHAR

STARTCHAR afii10030
ENCODING 188
SWIDTH 600 0
DWIDTH 9 0
BBX 9 9 0 0
BITMAP
C180
6300
6300
5500
5500
4900
4100
4100
E380
ENDCHAR

STARTCHAR afii10031
ENCODING 189
SWIDTH 600 0
DWIDTH 9 0
BBX 8 9 1 0
BITMAP
E7
42
42
42
7E
42
42
42
E7
ENDCHAR

STARTCHAR afii10032
ENCODING 190
SWIDTH 600 0
DWIDTH 9 0
BBX 8 9 1 0
BITMAP
3C
42
81
81
81
81
81
42
3C
ENDCHAR

STARTCHAR afii10033
ENCODING 191
SWIDTH 600 0
DWIDTH 9 0
BBX 8 9 1 0
BITMAP
FF
42
42
42
42
42
42
42
E7
ENDCHAR

STARTCHAR afii10034
ENCODING 192
SWIDTH 600 0
DWIDTH 9 0
BBX 7 9 1 0
BITMAP
FC
42
42
42
7C
40
40
40
F0
ENDCHAR

STARTCHAR afii10035
ENCODING 193
SWIDTH 600 0
DWIDTH 9 0
BBX 7 9 1 0
BITMAP
3A
46
82
80
80
80
80
42
3C
ENDCHAR

STARTCHAR afii10036
ENCODING 194
SWIDTH 600 0
DWIDTH 9 0
BBX 7 9 1 0
BITMAP
FE
92
92
10
10
10
10
10
7C
ENDCHAR

STARTCHAR afii10037
ENCODING 195
SWIDTH 600 0
DWIDTH 9 0
BBX 9 9 0 0
BITMAP
E380
4100
2200
1200
1400
0800
0800
5000
6000
ENDCHAR

STARTCHAR afii10038
ENCODING 196
SWIDTH 600 0
DWIDTH 9 0
BBX 7 9 1 0
BITMAP
38
10
7C
92
92
92
7C
10
38
ENDCHAR

STARTCHAR afii10039
ENCODING 197
SWIDTH 600 0
DWIDTH 9 0
BBX 8 9 1 0
BITMAP
E7
42
24
28
18
14
24
42
E7
ENDCHAR

STARTCHAR afii10040
ENCODING 198
SWIDTH 600 0
DWIDTH 9 0
BBX 8 11 1 -2
BITMAP
E7
42
42
42
42
42
42
42
FF
01
01
ENDCHAR

STARTCHAR afii10041
ENCODING 199
SWIDTH 600 0
DWIDTH 9 0
BBX 8 9 1 0
BITMAP
E7
42
42
42
46
3A
02
02
0F
ENDCHAR

STARTCHAR afii10042
ENCODING 200
SWIDTH 600 0
DWIDTH 9 0
BBX 9 9 0 0
BITMAP
EB80
4900
4900
4900
4900
4900
4900
4900
FF80
ENDCHAR

STARTCHAR afii10043
ENCODING 201
SWIDTH 600 0
DWIDTH 9 0
BBX 9 11 0 -2
BITMAP
EB80
4900
4900
4900
4900
4900
4900
4900
FF80
0080
0080
ENDCHAR

STARTCHAR afii10044
ENCODING 202
SWIDTH 600 0
DWIDTH 9 0
BBX 9 9 0 0
BITMAP
F800
9000
9000
9000
1F00
1080
1080
1080
3F00
ENDCHAR

STARTCHAR afii10045
ENCODING 203
SWIDTH 600 0
DWIDTH 9 0
BBX 9 9 0 0
BITMAP
E380
4100
4100
4100
7900
4500
4500
4500
FB80
ENDCHAR

STARTCHAR afii10046
ENCODING 204
SWIDTH 600 0
DWIDTH 9 0
BBX 7 9 1 0
BITMAP
E0
40
40
40
7C
42
42
42
FC
ENDCHAR

STARTCHAR afii10047
ENCODING 205
SWIDTH 600 0
DWIDTH 9 0
BBX 7 9 1 0
BITMAP
B8
C4
82
02
3E
02
02
84
78
ENDCHAR

STARTCHAR afii10048
ENCODING 206
SWIDTH 600 0
DWIDTH 9 0
BBX 9 9 0 0
BITMAP
E600
4900
5080
5080
7080
5080
5080
4900
E600
ENDCHAR

STARTCHAR afii10049
ENCODING 207
SWIDTH 600 0
DWIDTH 9 0
BBX 8 9 1 0
BITMAP
3F
42
42
42
3E
22
22
42
C7
ENDCHAR

STARTCHAR afii10065
ENCODING 208
SWIDTH 600 0
DWIDTH 9 0
BBX 8 7 1 0
BITMAP
7C
02
02
7E
82
86
7B
ENDCHAR

STARTCHAR afii10066
ENCODING 209
SWIDTH 600 0
DWIDTH 9 0
BBX 8 10 1 0
BITMAP
02
3C
40
BC
C2
81
81
81
42
3C
ENDCHAR

STARTCHAR afii10067
ENCODING 210
SWIDTH 600 0
DWIDTH 9 0
BBX 7 7 1 0
BITMAP
F8
44
44
7C
42
42
FC
ENDCHAR

STARTCHAR afii10068
ENCODING 211
SWIDTH 600 0
DWIDTH 9 0
BBX 7 7 1 0
BITMAP
FE
22
22
20
20
20
F8
ENDCHAR

STARTCHAR afii10069
ENCODING 212
SWIDTH 600 0
DWIDTH 9 0
BBX 8 8 0 -1
BITMAP
7F
22
22
22
22
42
FF
81
ENDCHAR

STARTCHAR afii10070
ENCODING 213
SWIDTH 600 0
DWIDTH 9 0
BBX 8 7 1 0
BITMAP
3C
42
81
FF
80
41
3E
ENDCHAR

STARTCHAR afii10072
ENCODING 214
SWIDTH 600 0
DWIDTH 9 0
BBX 9 7 0 0
BITMAP
DD80
AA80
2A00
1C00
2A00
4900
DD80
ENDCHAR

STARTCHAR afii10073
ENCODING 215
SWIDTH 600 0
DWIDTH 9 0
BBX 7 7 1 0
BITMAP
BC
C2
82
3C
02
82
7C
ENDCHAR

STARTCHAR afii10074
ENCODING 216
SWIDTH 600 0
DWIDTH 9 0
BBX 8 7 1 0
BITMAP
E3
46
4A
5A
52
62
C7
ENDCHAR

STARTCHAR afii10075
ENCODING 217
SWIDTH 600 0
DWIDTH 9 0
BBX 8 10 1 0
BITMAP
24
18
00
E3
46
4A
5A
52
62
C7
ENDCHAR

STARTCHAR afii10076
ENCODING 218
SWIDTH 600 0
DWIDTH 9 0
BBX 7 7 1 0
BITMAP
E6
4A
50
70
48
44
E6
ENDCHAR

STARTCHAR afii10077
ENCODING 219
SWIDTH 600 0
DWIDTH 9 0
BBX 8 7 1 0
BITMAP
7F
22
22
22
22
A2
C7
ENDCHAR

STARTCHAR afii10078
ENCODING 220
SWIDTH 600 0
DWIDTH 9 0
BBX 9 7 0 0
BITMAP
C180
6300
6300
5500
5500
4900
E380
ENDCHAR

STARTCHAR afii10079
ENCODING 221
SWIDTH 600 0
DWIDTH 9 0
BBX 8 7 1 0
BITMAP
E7
42
42
7E
42
42
E7
ENDCHAR

STARTCHAR afii10080
ENCODING 222
SWIDTH 600 0
DWIDTH 9 0
BBX 8 7 1 0
BITMAP
3C
42
81
81
81
42
3C
ENDCHAR

STARTCHAR afii10081
ENCODING 223
SWIDTH 600 0
DWIDTH 9 0
BBX 8 7 1 0
BITMAP
FF
42
42
42
42
42
E7
ENDCHAR

STARTCHAR afii10082
ENCODING 224
SWIDTH 600 0
DWIDTH 9 0
BBX 8 10 1 -3
BITMAP
DC
62
41
41
41
62
5C
40
40
F0
ENDCHAR

STARTCHAR afii10083
ENCODING 225
SWIDTH 600 0
DWIDTH 9 0
BBX 8 7 1 0
BITMAP
3D
43
81
80
80
41
3E
ENDCHAR

STARTCHAR afii10084
ENCODING 226
SWIDTH 600 0
DWIDTH 9 0
BBX 7 7 1 0
BITMAP
FE
92
92
10
10
10
7C
ENDCHAR

STARTCHAR afii10085
ENCODING 227
SWIDTH 600 0
DWIDTH 9 0
BBX 9 9 0 -2
BITMAP
E380
4100
2200
1200
1400
0800
0800
5000
6000
ENDCHAR

STARTCHAR afii10086
ENCODING 228
SWIDTH 600 0
DWIDTH 9 0
BBX 7 11 1 -2
BITMAP
30
10
7C
92
92
92
92
92
7C
10
38
ENDCHAR

STARTCHAR afii10087
ENCODING 229
SWIDTH 600 0
DWIDTH 9 0
BBX 8 7 1 0
BITMAP
E7
42
24
18
24
42
E7
ENDCHAR

STARTCHAR afii10088
ENCODING 230
SWIDTH 600 0
DWIDTH 9 0
BBX 8 8 1 -1
BITMAP
E7
42
42
42
42
42
FF
01
ENDCHAR

STARTCHAR afii10089
ENCODING 231
SWIDTH 600 0
DWIDTH 9 0
BBX 8 7 1 0
BITMAP
E7
42
42
46
3A
02
0F
ENDCHAR

STARTCHAR afii10090
ENCODING 232
SWIDTH 600 0
DWIDTH 9 0
BBX 9 7 0 0
BITMAP
ED80
4900
4900
4900
4900
4900
FF80
ENDCHAR

STARTCHAR afii10091
ENCODING 233
SWIDTH 600 0
DWIDTH 9 0
BBX 9 8 0 -1
BITMAP
ED80
4900
4900
4900
4900
4900
FF80
0080
ENDCHAR

STARTCHAR afii10092
ENCODING 234
SWIDTH 600 0
DWIDTH 9 0
BBX 8 7 1 0
BITMAP
F8
90
90
1E
11
11
3E
ENDCHAR

STARTCHAR afii10093
ENCODING 235
SWIDTH 600 0
DWIDTH 9 0
BBX 9 7 0 0
BITMAP
E380
4100
4100
7900
4500
4500
FB80
ENDCHAR

STARTCHAR afii10094
ENCODING 236
SWIDTH 600 0
DWIDTH 9 0
BBX 6 7 2 0
BITMAP
E0
40
40
78
44
44
F8
ENDCHAR

STARTCHAR afii10095
ENCODING 237
SWIDTH 600 0
DWIDTH 9 0
BBX 7 7 1 0
BITMAP
B8
C4
82
3E
02
84
78
ENDCHAR

STARTCHAR afii10096
ENCODING 238
SWIDTH 600 0
DWIDTH 9 0
BBX 9 7 0 0
BITMAP
E600
4900
5080
7080
5080
4900
E600
ENDCHAR

STARTCHAR afii10097
ENCODING 239
SWIDTH 600 0
DWIDTH 9 0
BBX 7 7 1 0
BITMAP
3E
44
44
3C
24
44
CE
ENDCHAR

STARTCHAR afii61352
ENCODING 240
SWIDTH 600 0
DWIDTH 9 0
BBX 9 9 0 0
BITMAP
CE00
4580
6580
6580
5580
4C00
4D80
4400
E400
ENDCHAR

STARTCHAR afii10071
ENCODING 241
SWIDTH 600 0
DWIDTH 9 0
BBX 8 9 1 0
BITMAP
24
00
3C
42
81
FF
80
41
3E
ENDCHAR

STARTCHAR afii10099
ENCODING 242
SWIDTH 600 0
DWIDTH 9 0
BBX 7 12 1 -3
BITMAP
40
F8
40
5C
62
42
42
42
E2
02
02
3C
ENDCHAR

STARTCHAR afii10100
ENCODING 243
SWIDTH 600 0
DWIDTH 9 0
BBX 7 10 1 0
BITMAP
08
10
00
FE
22
22
20
20
20
F8
ENDCHAR

STARTCHAR afii10101
ENCODING 244
SWIDTH 600 0
DWIDTH 9 0
BBX 8 7 1 0
BITMAP
3D
43
81
F8
80
41
3E
ENDCHAR

STARTCHAR afii10102
ENCODING 245
SWIDTH 600 0
DWIDTH 9 0
BBX 6 7 2 0
BITMAP
74
8C
80
78
04
C4
B8
ENDCHAR

STARTCHAR afii10103
ENCODING 246
SWIDTH 600 0
DWIDTH 9 0
BBX 7 10 1 0
BITMAP
10
10
00
70
10
10
10
10
10
FE
ENDCHAR

STARTCHAR afii10104
ENCODING 247
SWIDTH 600 0
DWIDTH 9 0
BBX 7 9 1 0
BITMAP
48
00
70
10
10
10
10
10
FE
ENDCHAR

STARTCHAR afii10105
ENCODING 248
SWIDTH 600 0
DWIDTH 9 0
BBX 5 13 2 -3
BITMAP
10
10
00
F8
08
08
08
08
08
08
08
18
E0
ENDCHAR

STARTCHAR afii10106
ENCODING 249
SWIDTH 600 0
DWIDTH 9 0
BBX 9 7 0 0
BITMAP
3E00
1400
1400
1700
1480
9480
EF00
ENDCHAR

STARTCHAR afii10107
ENCODING 250
SWIDTH 600 0
DWIDTH 9 0
BBX 9 7 0 0
BITMAP
DC00
4800
4800
7F00
4880
4880
EF00
ENDCHAR

STARTCHAR afii10108
ENCODING 251
SWIDTH 600 0
DWIDTH 9 0
BBX 8 9 1 0
BITMAP
40
F8
40
5C
62
42
42
42
E7
ENDCHAR

STARTCHAR afii10109
ENCODING 252
SWIDTH 600 0
DWIDTH 9 0
BBX 7 10 1 0
BITMAP
08
10
00
E6
4A
50
70
48
44
E6
ENDCHAR

STARTCHAR section
ENCODING 253
SWIDTH 600 0
DWIDTH 9 0
BBX 8 11 1 -2
BITMAP
1E
22
20
50
8C
42
31
0A
04
44
78
ENDCHAR

STARTCHAR afii10110
ENCODING 254
SWIDTH 600 0
DWIDTH 9 0
BBX 9 11 0 -2
BITMAP
1200
0C00
E380
4100
2200
1200
1400
0800
0800
5000
6000
ENDCHAR

STARTCHAR afii10193
ENCODING 255
SWIDTH 600 0
DWIDTH 9 0
BBX 8 9 1 -2
BITMAP
E7
42
42
42
42
42
FF
08
08
ENDCHAR
ENDFONT
